<?xml version="1.0" encoding="UTF-8" standalone="no"?>
<svg
   xmlns:dc="http://purl.org/dc/elements/1.1/"
   xmlns:cc="http://creativecommons.org/ns#"
   xmlns:rdf="http://www.w3.org/1999/02/22-rdf-syntax-ns#"
   xmlns:svg="http://www.w3.org/2000/svg"
   xmlns="http://www.w3.org/2000/svg"
   id="svg8"
   version="1.1"
   viewBox="0 0 47.248985 41.008396"
   height="41.008396mm"
   width="47.248985mm">
  <defs
     id="defs2" />
  <metadata
     id="metadata5">
    <rdf:RDF>
      <cc:Work
         rdf:about="">
        <dc:format>image/svg+xml</dc:format>
        <dc:type
           rdf:resource="http://purl.org/dc/dcmitype/StillImage" />
        <dc:title></dc:title>
      </cc:Work>
    </rdf:RDF>
  </metadata>
  <g
     transform="translate(-85.578413,-116.19168)"
     id="layer1">
    <path
       id="path840"
       d="m 103.04318,151.18419 c 0.0199,1.15377 -0.23573,2.33847 0.0339,3.46163 0.22937,0.95544 1.41496,0.0711 1.7117,-0.54072 0.39419,-0.81277 0.51861,-1.92855 0.34957,-2.79151"
       style="fill:#eecba5;fill-opacity:1;stroke:#000000;stroke-width:0.26458332px;stroke-linecap:butt;stroke-linejoin:miter;stroke-opacity:1" />
    <path
       id="path842"
       d="m 107.10477,151.5015 c 0.0918,1.04756 -0.44804,2.20274 0.0742,3.14839 0.49033,0.88786 1.4281,-0.30014 1.59018,-0.96466 0.16517,-0.67716 0.21086,-1.36944 0.17571,-2.05708"
       style="fill:#eecba5;fill-opacity:1;stroke:#000000;stroke-width:0.26458332px;stroke-linecap:butt;stroke-linejoin:miter;stroke-opacity:1" />
    <path
       id="path827"
       d="m 117.63261,118.32456 c -1.11961,0.005 -2.20968,0.0875 -3.0272,0.42168 -1.3011,0.53188 -1.23283,4.43154 -1.07591,5.8384 0.2392,2.14454 0.14572,5.83976 -0.0403,8.55969 1.86976,0.0637 3.73265,0.25005 5.44772,0.69504 -0.19002,-1.63228 -0.20885,-5.09577 -0.19895,-5.9402 0.0228,-1.94111 0.32942,-2.47286 2.18953,-2.85099 1.00764,-0.20489 3.69454,-0.0362 4.70514,-0.0527 5.55389,-0.091 8.13296,0.69647 -0.72399,-4.02405 -0.64078,-0.34151 -0.88683,-1.59728 -1.69809,-2.11563 -0.9608,-0.61391 -2.51234,-0.47137 -3.58272,-0.49558 -0.6409,-0.0145 -1.32346,-0.0388 -1.99523,-0.0356 z"
       style="fill:#000000;fill-opacity:1;stroke:#000000;stroke-width:0.26458332px;stroke-linecap:butt;stroke-linejoin:miter;stroke-opacity:1" />
    <path
       id="path878"
       d="m 120.17826,120.0546 c -0.40308,0.42619 -0.53983,1.12129 -0.26146,1.66321 0.1134,0.22077 0.28063,0.41348 0.50916,0.52406 0.83905,0.40598 1.07772,0.43492 1.9247,0.0451 0.57596,-0.26508 0.69755,-0.72095 0.65653,-1.35484 -0.1159,-1.79076 -2.2462,-1.49367 -2.82893,-0.87753 z"
       style="fill:#ffffff;fill-opacity:1;stroke:#000000;stroke-width:0.26458332px;stroke-linecap:butt;stroke-linejoin:miter;stroke-opacity:1" />
    <path
       style="fill:#000000;fill-opacity:1;stroke:none;stroke-width:0.10194102px;stroke-linecap:butt;stroke-linejoin:miter;stroke-opacity:1"
       d="m 121.15662,120.35151 c -0.1553,0.1642 -0.20799,0.43202 -0.10074,0.64081 0.0437,0.0851 0.10812,0.15931 0.19617,0.20192 0.32328,0.15642 0.41524,0.16757 0.74157,0.0174 0.22191,-0.10213 0.26876,-0.27777 0.25295,-0.522 -0.0447,-0.68996 -0.86543,-0.5755 -1.08995,-0.3381 z"
       id="path891" />
    <path
       id="path893"
       d="m 121.81131,120.63879 c -0.0444,0.0469 -0.0594,0.12342 -0.0288,0.18306 0.0125,0.0243 0.0309,0.0455 0.056,0.0577 0.0924,0.0447 0.11863,0.0479 0.21186,0.005 0.0634,-0.0292 0.0768,-0.0793 0.0723,-0.14913 -0.0128,-0.19711 -0.24724,-0.16441 -0.31138,-0.0966 z"
       style="fill:#ffffff;fill-opacity:1;stroke:none;stroke-width:0.02912269px;stroke-linecap:butt;stroke-linejoin:miter;stroke-opacity:1" />
    <path
       id="path895"
       d="m 115.4808,122.75943 c -0.19249,0.0157 -0.3821,0.0819 -0.56689,0.21704 -0.85633,0.6265 -0.33704,1.84752 -0.002,2.64945 0.51513,1.23132 2.03659,1.04112 3.07733,1.63815 0.14057,0.0806 0.4647,0.2389 0.75809,0.37052 0.051,-1.69689 0.40737,-2.21649 2.12959,-2.57504 -0.99296,-0.32918 -1.88789,-0.90873 -2.88562,-1.23559 -0.7878,-0.25809 -1.67679,-1.13252 -2.51095,-1.06453 z"
       style="fill:#ffffff;stroke:none;stroke-width:0.26458332px;stroke-linecap:butt;stroke-linejoin:miter;stroke-opacity:1" />
    <path
       id="path903"
       d="m 117.63261,118.32456 c -1.11961,0.005 -2.20968,0.0875 -3.0272,0.42168 -1.3011,0.53188 -1.23283,4.43154 -1.07591,5.8384 0.2392,2.14454 0.14572,5.83976 -0.0403,8.55969 1.86976,0.0637 3.73265,0.25005 5.44772,0.69504 -0.19002,-1.63228 -0.20885,-5.09577 -0.19895,-5.9402 0.0228,-1.94111 0.32942,-2.47286 2.18953,-2.85099 1.00764,-0.20489 3.69454,-0.0362 4.70514,-0.0527 5.55389,-0.091 8.13296,0.69647 -0.72399,-4.02405 -0.64078,-0.34151 -0.88683,-1.59728 -1.69809,-2.11563 -0.9608,-0.61391 -2.51234,-0.47137 -3.58272,-0.49558 -0.6409,-0.0145 -1.32346,-0.0388 -1.99523,-0.0356 z"
       style="fill:none;fill-opacity:1;stroke:#000000;stroke-width:0.26458332px;stroke-linecap:butt;stroke-linejoin:miter;stroke-opacity:1" />
    <path
       id="path815"
       d="m 90.479641,135.63101 c -2.055703,1.35637 -2.662642,3.19091 -2.764645,6.13731 -0.0495,1.4297 0.37465,4.74082 0.943342,6.17445 1.433314,3.61329 4.535881,3.11715 8.410157,3.05069 10.508775,-0.18027 15.165185,2.17129 25.271875,-0.92067 3.71184,-1.13557 2.40572,-4.92061 2.59827,-8.53773 0.10168,-1.91003 -1.01614,-5.29826 -2.52845,-6.25155 -4.4477,-2.80361 -11.37526,-2.10697 -16.40838,-2.0571 -7.173581,-0.44067 -12.807274,0.61329 -15.522169,2.4046 z"
       style="fill:#86d2e6;fill-opacity:1;stroke:#000000;stroke-width:0.26499999;stroke-linecap:butt;stroke-linejoin:miter;stroke-miterlimit:4;stroke-dasharray:none;stroke-opacity:1" />
    <path
       id="path866"
       d="m 107.97527,140.79901 c -1.47033,0.27755 -3.52125,1.26359 -3.58791,2.74811 -0.0633,1.41025 2.25585,0.68215 3.04678,0.0164 0.54156,-0.45585 1.07883,-0.9345 1.72451,-1.24229"
       style="fill:#eecba5;fill-opacity:1;stroke:#000000;stroke-width:0.26499999;stroke-linecap:butt;stroke-linejoin:miter;stroke-miterlimit:4;stroke-dasharray:none;stroke-opacity:1" />
  </g>
</svg>
